PathFileType	4	(X/Y/Z)	pose_F01_0-96.trc
DataRate	CameraRate	NumFrames	NumMarkers	Units	OrigDataRate	OrigDataStartFrame	OrigNumFrames
30	30	5	21	m	30	36	96
Frame#	Time	CHip			RHip			RKnee			RAnkle			RBigToe			RSmallToe			RHeel			LHip			LKnee			LAnkle			LBigToe			LSmallToe			LHeel			Neck			Nose			RShoulder			RElbow			RWrist			LShoulder			LElbow			LWrist			
		X1	Y1	Z1	X2	Y2	Z2	X3	Y3	Z3	X4	Y4	Z4	X5	Y5	Z5	X6	Y6	Z6	X7	Y7	Z7	X8	Y8	Z8	X9	Y9	Z9	X10	Y10	Z10	X11	Y11	Z11	X12	Y12	Z12	X13	Y13	Z13	X14	Y14	Z14	X15	Y15	Z15	X16	Y16	Z16	X17	Y17	Z17	X18	Y18	Z18	X19	Y19	Z19	X20	Y20	Z20	X21	Y21	Z21	
36	1.2	-0.16546124784873498	1.8862167398931757	-0.612653747942855	-0.1768266541830416	1.8828807539893593	-0.5445601631695252	-0.169294056332375	1.748787435745148	-0.534945456133774	-0.16741249756861426	1.611183568541149	-0.5148519781924841	-0.19851731092972205	1.5739715282702933	-0.472392779865563	-0.19395126974146693	1.5804796324350137	-0.4508378197931305	-0.16374750854276096	1.5980267499850214	-0.5258046737079151	-0.1510745861520422	1.8894638072646461	-0.6743843446129165	-0.14467479254570453	1.748479370530748	-0.6686283200287836	-0.14374372924143936	1.61004254563983	-0.656772840053817	-0.17084732483335308	1.5660346529670082	-0.6486468592631318	-0.15827643351099205	1.5717884199611953	-0.6828137333017334	-0.13916043560375832	1.5965288723727524	-0.6470950859197263	-0.15535617592331724	2.0464348023624814	-0.6264617519199711	-0.1757032689459272	2.111110301178565	-0.6169058613913779	-0.17078444193351938	2.0413780873421463	-0.5355476461955786	-1.9876084435620354	1.903411009988091	1.6159609415358425	-0.22694047926539826	1.9129975651708258	-0.31764001746897674	-0.13542503387425503	2.053379678593629	-0.7194338410287489	-0.11978768765425184	1.9841153883367657	-0.7878082448828501	-0.11199361109953657	1.922000976276084	-0.8594723246853461
37	1.2333333333333334	-0.16579531173277157	1.883847309056523	-0.6123685572384093	-0.17727540817861412	1.8819984106560728	-0.544563948807696	-0.169681261571853	1.7462620923710919	-0.5343178161131884	-0.16723077966712074	1.6098779513420227	-0.5149569263229907	-0.19861209858800366	1.5748192844293227	-0.4724911487921566	-0.1921274896797101	1.5813926243168586	-0.4530204559385008	-0.1637451760789391	1.5980733059178511	-0.5257531089288346	-0.15121843832730925	1.8882789563257787	-0.6741993778391114	-0.14531040262912706	1.7445820798568357	-0.6674892916826675	-0.14421386968364716	1.607518354635354	-0.6556841533583052	-0.17220705800701422	1.5662849049044352	-0.6431855414264248	-0.15964329286487922	1.5718415615349273	-0.6773467319011484	-0.13766971790888846	1.5952641928426894	-0.6481061386055177	-0.15546588247628457	2.0453699596554933	-0.6265942666861102	-0.17571081045083983	2.1111068814681104	-0.6168838104471803	-0.17166385799644132	2.0414738397892034	-0.538546348445165	-0.18345932600050466	1.9686927102434226	-0.4596211286479317	-0.21020896075380952	1.9083300858451364	-0.3688292548878148	-0.13552309378738553	2.0521139574082046	-0.7196231015740197	-0.12088462312191822	1.975770338439605	-0.7785992037033587	-0.1159226256477807	1.901731619438006	-0.8318345486515405
38	1.2666666666666666	-0.16500750122182295	1.8850812678934965	-0.6095390108181281	-0.17747848054310086	1.8823190401989984	-0.5445919535047924	-0.16970709887226856	1.746344138155516	-0.534328178928335	-0.16723512686134853	1.6099046611988785	-0.514932630932597	-0.19657983210257005	1.5746755819837277	-0.47458952737388344	-0.19103502690621899	1.580975401654454	-0.4498118903721876	-0.16355047224067795	1.5995866579393485	-0.5262898457139447	-0.14925094040061518	1.887238300288408	-0.6763221624989854	-0.14511780903001043	1.7458820878872159	-0.6678780233997336	-0.14397558977404842	1.6088960236483265	-0.6562651178527135	-0.16785533927563454	1.5664754649453785	-0.6477050125674961	-0.1570517497368482	1.5730786956143117	-0.6803359576326037	-0.139423881647776	1.5984718022737798	-0.6470528775576423	-0.15550628983835993	2.045359975884747	-0.6265235432448516	-0.17571614848040004	2.111134796624172	-0.6169225260563387	-0.17366971337334655	2.0403761017806104	-0.536482024267962	-0.17663154490593844	1.9670305631623959	-0.48072165615401385	-0.2047307467502101	1.9060181471155764	-0.4076316863255667	-0.13558003953446984	2.052059093821867	-0.719592118758951	-0.12430553893284778	1.9730915351169158	-0.7675674757702322	-0.13036455635745006	1.899506278683841	-0.7941070267861302
39	1.3	-0.16700238321912636	1.8837146272413652	-0.607057329482465	-0.17911806297319502	1.8830819012972544	-0.5424417209530874	-0.16956165080472416	1.7474948231047236	-0.5345528037667575	-0.16745149224472483	1.6112453448344422	-0.5147588205474501	-0.19752026300040465	1.5743579848814782	-0.46915486030608333	-0.19106811443064547	1.5810292231786138	-0.44975911575233657	-0.16376270754429426	1.5981154583909447	-0.5257103801800275	-0.1513054995644867	1.8883497426630744	-0.6741015400753108	-0.14529823526778263	1.7446332725886893	-0.6675170270871363	-0.14426929559373147	1.607433798276623	-0.6556534115872668	-0.17033412033806397	1.5650277467202838	-0.6447025189994486	-0.1595871714248799	1.5715987390624695	-0.6772633104887308	-0.13942937433376346	1.5952541124510773	-0.6466278494511986	-0.15549823781814853	2.045334414912105	-0.6265007934537312	-0.1757387568332196	2.111131484444752	-0.6168884859912195	-0.17272792376221402	2.041257822924334	-0.5333966002940669	-0.17541758542369337	1.9584248589293936	-0.49262039921126455	-0.20074561770760266	1.884681554937393	-0.45223490483543155	-0.13555983852010653	2.0519195680137696	-0.7196244696230909	-0.1266408828794633	1.9675845304979167	-0.7528997511992014	-0.13827665937735045	1.8906064572385397	-0.7654859362315273
40	1.3333333333333333	-0.16781185188325354	1.8837666646337685	-0.6101911188243366	-0.17717238646541755	1.8805860546355768	-0.5443205237453219	-0.17172961870494974	1.7462095957011672	-0.5320073133220565	-0.1672978541746388	1.6099178445898572	-0.5149516335363185	-0.19852170756026533	1.5740079318063562	-0.47232031256584506	-0.19291618665635898	1.5803366054404722	-0.4475752122217086	-0.16380465657845247	1.5981044050982982	-0.5257829059140025	-0.15135880357176093	1.8857671512656866	-0.6737502239022416	-0.14510634874741088	1.7432317495854706	-0.6674237169107924	-0.14343220678132587	1.6074031282096781	-0.6524778161938736	-0.17089451822516113	1.5660111238230117	-0.6486560497324309	-0.15828170408741155	1.57181993979542	-0.6828461321847759	-0.1386040649812812	1.5952305938029634	-0.6433584141009477	-0.15754062330073465	2.0452719867378963	-0.6243225967247583	-0.17764545894270378	2.1122397022116743	-0.6146034694745934	-0.17362166464136974	2.0400366797144396	-0.5358242418381374	-0.17626728385299997	1.9569304652618733	-0.49555301495291837	-0.18820005218571773	1.884471965820185	-0.462560234530901	-0.1384662738513502	2.052016690719142	-0.7202959576593727	-0.12950580524171618	1.9663297112903986	-0.7533662162165616	-0.13838932321035588	1.8850149963205347	-0.7557969807823038
